<?xml version="1.0" encoding="UTF-8" standalone="no"?>
<svg
   xmlns:dc="http://purl.org/dc/elements/1.1/"
   xmlns:cc="http://creativecommons.org/ns#"
   xmlns:rdf="http://www.w3.org/1999/02/22-rdf-syntax-ns#"
   xmlns:svg="http://www.w3.org/2000/svg"
   xmlns="http://www.w3.org/2000/svg"
   xmlns:sodipodi="http://sodipodi.sourceforge.net/DTD/sodipodi-0.dtd"
   xmlns:inkscape="http://www.inkscape.org/namespaces/inkscape"
   width="24"
   height="24"
   viewBox="0 0 24 24"
   fill="none"
   version="1.1"
   id="svg4"
   sodipodi:docname="tm_animate.svg"
   inkscape:version="1.0.2 (e86c870879, 2021-01-15)">
  <metadata
     id="metadata10">
    <rdf:RDF>
      <cc:Work
         rdf:about="">
        <dc:format>image/svg+xml</dc:format>
        <dc:type
           rdf:resource="http://purl.org/dc/dcmitype/StillImage" />
      </cc:Work>
    </rdf:RDF>
  </metadata>
  <defs
     id="defs8" />
  <sodipodi:namedview
     pagecolor="#ffffff"
     bordercolor="#666666"
     borderopacity="1"
     objecttolerance="10"
     gridtolerance="10"
     guidetolerance="10"
     inkscape:pageopacity="0"
     inkscape:pageshadow="2"
     inkscape:window-width="1080"
     inkscape:window-height="1883"
     id="namedview6"
     showgrid="false"
     inkscape:zoom="18.020833"
     inkscape:cx="10.514472"
     inkscape:cy="30.31208"
     inkscape:window-x="0"
     inkscape:window-y="0"
     inkscape:window-maximized="1"
     inkscape:current-layer="svg4"
     inkscape:document-rotation="0" />
  <path
     d="M7 4V20M17 4V20M3 8H7M17 8H21M3 12H21M3 16H7M17 16H21M4 20H20C20.5523 20 21 19.5523 21 19V5C21 4.44772 20.5523 4 20 4H4C3.44772 4 3 4.44772 3 5V19C3 19.5523 3.44772 20 4 20Z"
     stroke="#374151"
     stroke-width="2"
     stroke-linecap="round"
     stroke-linejoin="round"
     id="path2"
     style="stroke-width:1.5;stroke-miterlimit:4;stroke-dasharray:none" />
  <rect
     style="fill:none;stroke:#0000c0;stroke-width:1.5;stroke-linejoin:miter;stroke-dashoffset:13.33"
     id="rect839"
     width="10.010477"
     height="8.1081648"
     x="7"
     y="4" />
  <rect
     style="fill:none;stroke:#0000c0;stroke-width:1.484;stroke-linejoin:miter;stroke-dashoffset:13.33;stroke-miterlimit:4;stroke-dasharray:none"
     id="rect839-3"
     width="10.026617"
     height="7.9218478"
     x="6.99193"
     y="12.100095" />
</svg>
