<?xml version="1.0" encoding="UTF-8" standalone="no"?>
<svg
   xmlns:dc="http://purl.org/dc/elements/1.1/"
   xmlns:cc="http://creativecommons.org/ns#"
   xmlns:rdf="http://www.w3.org/1999/02/22-rdf-syntax-ns#"
   xmlns:svg="http://www.w3.org/2000/svg"
   xmlns="http://www.w3.org/2000/svg"
   xmlns:sodipodi="http://sodipodi.sourceforge.net/DTD/sodipodi-0.dtd"
   xmlns:inkscape="http://www.inkscape.org/namespaces/inkscape"
   width="24"
   height="24"
   viewBox="0 0 24 24"
   fill="none"
   version="1.1"
   id="svg4"
   sodipodi:docname="tm_macro.svg"
   inkscape:version="1.0.2 (e86c870879, 2021-01-15)">
  <metadata
     id="metadata10">
    <rdf:RDF>
      <cc:Work
         rdf:about="">
        <dc:format>image/svg+xml</dc:format>
        <dc:type
           rdf:resource="http://purl.org/dc/dcmitype/StillImage" />
      </cc:Work>
    </rdf:RDF>
  </metadata>
  <defs
     id="defs8" />
  <sodipodi:namedview
     pagecolor="#ffffff"
     bordercolor="#666666"
     borderopacity="1"
     objecttolerance="10"
     gridtolerance="10"
     guidetolerance="10"
     inkscape:pageopacity="0"
     inkscape:pageshadow="2"
     inkscape:window-width="1600"
     inkscape:window-height="836"
     id="namedview6"
     showgrid="false"
     inkscape:zoom="8.8229167"
     inkscape:cx="7.4666216"
     inkscape:cy="14.238783"
     inkscape:window-x="0"
     inkscape:window-y="0"
     inkscape:window-maximized="1"
     inkscape:current-layer="svg4" />
  <path
     d="m 19.428,15.4282 c -0.2792,-0.2792 -0.6348,-0.4695 -1.022,-0.547 l -2.3875,-0.4775 c -1.3084,-0.2616 -2.6666,-0.0797 -3.86,0.517 l -0.3174,0.1586 c -1.1934,0.5967 -2.55162,0.7786 -3.85997,0.517 L 6.04938,15.2099 c -0.65572,-0.1311 -1.3336,0.0741 -1.80644,0.547"
     stroke="#374151"
     stroke-width="2"
     stroke-linecap="round"
     stroke-linejoin="round"
     id="path2-8"
     sodipodi:nodetypes="cccccccc"
     style="stroke:#0000c0;stroke-width:1.5;stroke-miterlimit:4;stroke-dasharray:none;stroke-opacity:1" />
  <path
     d="m 7.9998,4 h 8 l -1,1 v 5.1716 c 0,0.5304 0.2107,1.0391 0.5858,1.4142 l 5,5 C 21.8455,17.8457 20.9532,20 19.1714,20 H 4.82823 C 3.04642,20 2.15409,17.8457 3.41401,16.5858 l 5.00001,-5 C 8.78909,11.2107 8.9998,10.702 8.9998,10.1716 V 5 Z"
     stroke="#374151"
     stroke-width="2"
     stroke-linecap="round"
     stroke-linejoin="round"
     id="path2-9"
     sodipodi:nodetypes="cccsssssccscc" />
</svg>
