<?xml version="1.0" encoding="UTF-8" standalone="no"?>
<svg
   xmlns:dc="http://purl.org/dc/elements/1.1/"
   xmlns:cc="http://creativecommons.org/ns#"
   xmlns:rdf="http://www.w3.org/1999/02/22-rdf-syntax-ns#"
   xmlns:svg="http://www.w3.org/2000/svg"
   xmlns="http://www.w3.org/2000/svg"
   xmlns:sodipodi="http://sodipodi.sourceforge.net/DTD/sodipodi-0.dtd"
   xmlns:inkscape="http://www.inkscape.org/namespaces/inkscape"
   width="24"
   height="24"
   viewBox="0 0 24 24"
   fill="none"
   version="1.1"
   id="svg4"
   sodipodi:docname="tm_copy.svg"
   inkscape:version="1.0.2 (e86c870879, 2021-01-15)">
  <metadata
     id="metadata10">
    <rdf:RDF>
      <cc:Work
         rdf:about="">
        <dc:format>image/svg+xml</dc:format>
        <dc:type
           rdf:resource="http://purl.org/dc/dcmitype/StillImage" />
      </cc:Work>
    </rdf:RDF>
  </metadata>
  <defs
     id="defs8" />
  <sodipodi:namedview
     pagecolor="#ffffff"
     bordercolor="#666666"
     borderopacity="1"
     objecttolerance="10"
     gridtolerance="10"
     guidetolerance="10"
     inkscape:pageopacity="0"
     inkscape:pageshadow="2"
     inkscape:window-width="1600"
     inkscape:window-height="836"
     id="namedview6"
     showgrid="false"
     inkscape:zoom="7.5572037"
     inkscape:cx="-13.197026"
     inkscape:cy="18.157245"
     inkscape:window-x="0"
     inkscape:window-y="0"
     inkscape:window-maximized="1"
     inkscape:current-layer="svg4" />
  <path
     d="m 8.9999998,5 h -2 c -1.10457,0 -2,0.89543 -2,2 v 12 c 0,1.1046 0.89543,2 2,2 H 17 c 1.1046,0 2,-0.8954 2,-2 V 18 M 8.9999998,5 c 0,1.10457 0.8954303,2 2.0000002,2 h 2 c 1.1046,0 2,-0.89543 2,-2 M 8.9999998,5 C 8.9999998,3.89543 9.8954301,3 11,3 h 2 c 1.1046,0 2,0.89543 2,2 m 0,0 h 2 c 1.1046,0 2,0.89543 2,2 v 3"
     stroke="#4a5568"
     stroke-width="2"
     stroke-linecap="round"
     stroke-linejoin="round"
     id="path2-3"
     sodipodi:nodetypes="cssssssccssccssccssc"
     style="stroke-width:1.5;stroke-miterlimit:4;stroke-dasharray:none" />
  <path
     d="m 20.795627,13.818334 h -10 m 0,0 3,-3 m -3,3 3,3"
     stroke="#4a5568"
     stroke-width="2"
     stroke-linecap="round"
     stroke-linejoin="round"
     id="path2-6"
     sodipodi:nodetypes="cccccc"
     style="stroke-width:1.5;stroke-miterlimit:4;stroke-dasharray:none;stroke:#0000c0;stroke-opacity:1" />
</svg>
