<?xml version="1.0" encoding="UTF-8" standalone="no"?>
<svg
   xmlns:dc="http://purl.org/dc/elements/1.1/"
   xmlns:cc="http://creativecommons.org/ns#"
   xmlns:rdf="http://www.w3.org/1999/02/22-rdf-syntax-ns#"
   xmlns:svg="http://www.w3.org/2000/svg"
   xmlns="http://www.w3.org/2000/svg"
   xmlns:sodipodi="http://sodipodi.sourceforge.net/DTD/sodipodi-0.dtd"
   xmlns:inkscape="http://www.inkscape.org/namespaces/inkscape"
   width="24"
   height="24"
   viewBox="0 0 24 24"
   fill="none"
   version="1.1"
   id="svg1987"
   sodipodi:docname="tm_print.svg"
   inkscape:export-filename="/Users/mgubi/t/devel/qt6/TeXmacs/misc/pixmaps/modern/24x24/main/tm_print_x4.png"
   inkscape:export-xdpi="384"
   inkscape:export-ydpi="384"
   inkscape:version="1.0.2 (e86c870879, 2021-01-15)">
  <metadata
     id="metadata1993">
    <rdf:RDF>
      <cc:Work
         rdf:about="">
        <dc:format>image/svg+xml</dc:format>
        <dc:type
           rdf:resource="http://purl.org/dc/dcmitype/StillImage" />
        <dc:title />
      </cc:Work>
    </rdf:RDF>
  </metadata>
  <defs
     id="defs1991" />
  <sodipodi:namedview
     pagecolor="#ffffff"
     bordercolor="#666666"
     borderopacity="1"
     objecttolerance="10"
     gridtolerance="10"
     guidetolerance="10"
     inkscape:pageopacity="0"
     inkscape:pageshadow="2"
     inkscape:window-width="1600"
     inkscape:window-height="836"
     id="namedview1989"
     showgrid="false"
     inkscape:zoom="13.378525"
     inkscape:cx="30.128819"
     inkscape:cy="5.2384214"
     inkscape:window-x="0"
     inkscape:window-y="0"
     inkscape:window-maximized="1"
     inkscape:current-layer="svg1987"
     inkscape:document-rotation="0" />
  <path
     d="M 17.014721,8.9724876 V 4.9724874 c 0,-1.10457 -0.8954,-2 -2,-2 H 9.0147224 c -1.1045701,0 -2.0000001,0.89543 -2.0000001,2 v 4.0000002 z"
     stroke="#4a5568"
     stroke-width="2"
     stroke-linecap="round"
     stroke-linejoin="round"
     id="path1985-2"
     sodipodi:nodetypes="csssscc"
     style="stroke:#0000c0;stroke-opacity:1;stroke-width:1.4;stroke-miterlimit:4;stroke-dasharray:none" />
  <path
     d="m 17.014722,16.947148 h 2 c 1.1046,0 2,-0.8954 2,-2 v -4 c 0,-1.1045713 -0.8954,-2.0000013 -2,-2.0000013 H 5.0147214 c -1.10457,0 -2,0.89543 -2,2.0000013 v 4 c 0,1.1046 0.89543,2 2,2 h 2"
     stroke="#4a5568"
     stroke-width="2"
     stroke-linecap="round"
     stroke-linejoin="round"
     id="path1985-1"
     sodipodi:nodetypes="cssssssssc"
     style="stroke-width:1.4;stroke-miterlimit:4;stroke-dasharray:none" />
  <path
     d="M 9.0147225,20.805479 H 15.01472 c 1.1046,0 2,-0.8954 2,-2 v -4 c 0,-1.1046 -0.8954,-2 -2,-2 H 9.0147225 c -1.1045696,0 -1.9999996,0.8954 -1.9999996,2 v 4 c 0,1.1046 0.89543,2 1.9999996,2 z"
     stroke="#4a5568"
     stroke-width="2"
     stroke-linecap="round"
     stroke-linejoin="round"
     id="path1985-5"
     sodipodi:nodetypes="sssssssss"
     style="stroke:#0000c0;stroke-opacity:1;stroke-width:1.4;stroke-miterlimit:4;stroke-dasharray:none" />
</svg>
